<svg id="Capa_1" enable-background="new 0 0 512 512" height="512" viewBox="0 0 512 512" width="512" xmlns="http://www.w3.org/2000/svg"><g><g><path d="m459.596 479.728h-407.19c-40.572 0-65.713-44.126-44.981-79.031l203.593-342.817c20.262-34.119 69.675-34.167 89.966 0l203.595 342.817c20.714 34.881-4.384 79.031-44.983 79.031z" fill="#938493"/></g><path d="m52.751 400.696 203.593-342.816c5.615-9.455 13.472-16.281 22.324-20.5-23.104-11.017-52.997-4.173-67.65 20.5l-203.593 342.816c-20.731 34.905 4.409 79.031 44.981 79.031h45.326c-40.572.001-65.712-44.125-44.981-79.031z" fill="#7b6c79"/><path d="m241.478 75.969-203.594 342.817c-6.692 11.265 1.413 25.516 14.522 25.516h407.19c13.098 0 21.218-14.243 14.522-25.516l-203.595-342.817v-.001c-6.542-11.016-22.492-11.033-29.045.001z" fill="#ffd500"/><path d="m83.21 418.786 195.453-329.11-8.14-13.707v-.001c-6.542-11.017-22.493-11.034-29.045 0l-203.594 342.818c-6.691 11.265 1.414 25.516 14.522 25.516h45.326c-13.108 0-21.213-14.251-14.522-25.516z" fill="#fbc700"/><path d="m255.873 182.73c-13.276 0-24.037 10.762-24.037 24.037v82.767c0 13.276 10.762 24.037 24.037 24.037s24.037-10.762 24.037-24.037v-82.767c.001-13.275-10.761-24.037-24.037-24.037z" fill="#938493"/><circle cx="255.873" cy="371.606" fill="#938493" r="24.037"/><g fill="#7b6c79"><path d="m258.964 289.534v-82.767c0-8.242 4.151-15.513 10.474-19.844-3.861-2.644-8.531-4.194-13.564-4.194-13.276 0-24.037 10.762-24.037 24.037v82.767c0 13.276 10.762 24.037 24.037 24.037 5.033 0 9.703-1.549 13.564-4.194-6.324-4.329-10.474-11.6-10.474-19.842z"/><path d="m258.964 371.606c0-8.242 4.151-15.513 10.474-19.844-3.861-2.644-8.531-4.194-13.564-4.194-13.275 0-24.037 10.762-24.037 24.037s10.762 24.037 24.037 24.037c5.033 0 9.703-1.549 13.564-4.194-6.324-4.329-10.474-11.6-10.474-19.842z"/></g></g></svg>